<svg width="391" height="446" viewBox="0 0 391 446" fill="none" xmlns="http://www.w3.org/2000/svg">
<path d="M141.162 81.5L304.162 81.5L385.662 222.662L304.162 363.824L141.162 363.824L59.6621 222.662L141.162 81.5Z" fill="#4F4F4F"/>
<path d="M385.729 222.107L304.527 364.213L140.858 363.483L222.06 221.377L385.729 222.107Z" fill="#3F3F3F"/>
<path d="M174.138 140L270.138 140L318.138 223.138L270.138 306.277L174.138 306.277L126.138 223.138L174.138 140Z" fill="white"/>
<path d="M186.117 160.863L257.844 160.863L293.707 222.981L257.844 285.098L186.117 285.098L150.254 222.981L186.117 160.863Z" fill="#4F4F4F"/>
<path d="M297.981 223.577L262.912 289.858L187.977 287.088L223.046 220.808L297.981 223.577Z" fill="#3F3F3F"/>
<rect x="222" y="161" width="109" height="62" fill="#4F4F4F"/>
<rect x="222" y="213" width="83" height="19" fill="white"/>
<path d="M263.25 128.55L289.75 128.55L303 151.5L289.75 174.45L263.25 174.45L250 151.5L263.25 128.55Z" fill="white"/>
<path d="M165.95 129.25L192.45 129.25L205.7 152.2L192.45 175.149L165.95 175.149L152.7 152.2L165.95 129.25Z" fill="white"/>
<path d="M129.95 199.25L156.45 199.25L169.7 222.2L156.45 245.149L129.95 245.149L116.7 222.2L129.95 199.25Z" fill="white"/>
<path d="M165.95 271.25L192.45 271.25L205.7 294.2L192.45 317.149L165.95 317.149L152.7 294.2L165.95 271.25Z" fill="white"/>
<path d="M253.95 271.25L280.45 271.25L293.7 294.2L280.45 317.149L253.95 317.149L240.7 294.2L253.95 271.25Z" fill="white"/>
<path d="M286.95 199.25L313.45 199.25L326.7 222.2L313.45 245.149L286.95 245.149L273.7 222.2L286.95 199.25Z" fill="white"/>
<path d="M208.95 199.25L235.45 199.25L248.7 222.2L235.45 245.149L208.95 245.149L195.7 222.2L208.95 199.25Z" fill="white"/>
</svg>
