<?xml version="1.0" encoding="UTF-8" standalone="no"?>
<svg
   height="84.874313"
   viewBox="0 -960 1253.963 1697.4862"
   width="62.698154"
   version="1.1"
   id="svg4"
   sodipodi:docname="line-start.svg"
   xml:space="preserve"
   inkscape:version="1.2.2 (732a01da63, 2022-12-09)"
   xmlns:inkscape="http://www.inkscape.org/namespaces/inkscape"
   xmlns:sodipodi="http://sodipodi.sourceforge.net/DTD/sodipodi-0.dtd"
   xmlns="http://www.w3.org/2000/svg"
   xmlns:svg="http://www.w3.org/2000/svg"><defs
     id="defs8" /><sodipodi:namedview
     id="namedview6"
     pagecolor="#ffffff"
     bordercolor="#000000"
     borderopacity="0.25"
     inkscape:showpageshadow="2"
     inkscape:pageopacity="0.0"
     inkscape:pagecheckerboard="0"
     inkscape:deskcolor="#d1d1d1"
     showgrid="false"
     inkscape:zoom="7.7560775"
     inkscape:cx="47.962388"
     inkscape:cy="54.666808"
     inkscape:window-width="1743"
     inkscape:window-height="1259"
     inkscape:window-x="457"
     inkscape:window-y="474"
     inkscape:window-maximized="0"
     inkscape:current-layer="svg4"><inkscape:page
       x="0"
       y="0"
       width="1253.963"
       height="1697.4862"
       id="page553" /><inkscape:page
       x="1235.9126"
       y="1805.7885"
       width="0"
       height="0"
       id="page555" /></sodipodi:namedview><path
     d="m 321,-641 q 0,67 46.5,114 46.5,47 113.5,47 67,0 114,-47 47,-47 47,-114 0,-67 -47,-113.5 -47,-46.5 -114,-46.5 -67,0 -113.5,46.5 Q 321,-708 321,-641 Z m -95,0 q 0,-107 74,-181 74,-74 181,-74 107,0 181,74 74,74 74,181 0,94 -59.5,163.5 Q 617,-408 528,-392 V -64 H 434 V -392 Q 345,-408 285.5,-477.5 226,-547 226,-641 Z m 255,0 z"
     id="path2" /><path
     d="m 825.00004,667 -67,-67 146,-146 H 434 V -64 h 94 v 424 h 377.00004 l -146,-146 68,-67 L 1085,405 Z"
     id="path343" /></svg>
