<?xml version="1.0" encoding="UTF-8" standalone="no"?>
<!-- Uploaded to: SVG Repo, www.svgrepo.com, Generator: SVG Repo Mixer Tools -->

<svg
   fill="#000000"
   version="1.1"
   id="Capa_1"
   width="800"
   height="800"
   viewBox="0 0 356.572 356.572"
   xml:space="preserve"
   sodipodi:docname="mouse-left-button-svgrepo-com.svg"
   inkscape:version="0.0"
   xmlns:inkscape="http://www.inkscape.org/namespaces/inkscape"
   xmlns:sodipodi="http://sodipodi.sourceforge.net/DTD/sodipodi-0.dtd"
   xmlns="http://www.w3.org/2000/svg"
   xmlns:svg="http://www.w3.org/2000/svg"><defs
   id="defs9" /><sodipodi:namedview
   id="namedview7"
   pagecolor="#ffffff"
   bordercolor="#000000"
   borderopacity="0.25"
   inkscape:showpageshadow="2"
   inkscape:pageopacity="0.0"
   inkscape:pagecheckerboard="0"
   inkscape:deskcolor="#d1d1d1"
   showgrid="false"
   inkscape:zoom="0.76974312"
   inkscape:cx="464.44066"
   inkscape:cy="598.9011"
   inkscape:window-width="2256"
   inkscape:window-height="1403"
   inkscape:window-x="0"
   inkscape:window-y="0"
   inkscape:window-maximized="1"
   inkscape:current-layer="g4" />
<g
   id="g4">
	<path
   d="M 181.563,0 C 120.762,0 59.215,30.525 59.215,88.873 V 237.5 c 0,65.658 53.412,119.071 119.071,119.071 65.658,0 119.07,-53.413 119.07,-119.071 V 88.873 C 297.356,27.809 237.336,0 181.563,0 Z m 93.382,237.5 c 0,53.303 -43.362,96.657 -96.659,96.657 -53.299,0 -96.657,-43.354 -96.657,-96.657 v -69.513 c 20.014,6.055 57.685,15.215 102.221,15.215 28.515,0 59.831,-3.809 91.095,-14.567 z m 0,-92.706 C 193.262,176.027 106.592,152.51 81.629,144.43 V 88.873 c 0,-43.168 51.489,-66.46 99.934,-66.46 46.481,0 93.382,20.547 93.382,66.46 z M 190.893,48.389 v 81.248 c 0,6.187 -5.023,11.208 -11.206,11.208 -6.185,0 -11.207,-5.021 -11.207,-11.208 V 48.389 c 0,-6.186 5.021,-11.207 11.207,-11.207 6.182,0 11.206,5.021 11.206,11.207 z"
   id="path2"
   sodipodi:nodetypes="sssssssssscsccsccssscsssssss" />
<path
   d="m 175.008,0 c 60.801,0 122.348,30.525 122.348,88.873 V 237.5 c 0,65.658 -53.412,119.071 -119.071,119.071 -65.658,0 -119.07,-53.413 -119.07,-119.071 V 88.873 C 59.215,27.809 119.235,0 175.008,0 Z M 81.626,237.5 c 0,53.303 43.362,96.657 96.659,96.657 53.299,0 96.657,-43.354 96.657,-96.657 v -69.513 c -20.014,6.055 -57.685,15.215 -102.221,15.215 -28.515,0 -59.831,-3.809 -91.095,-14.567 z m 0,-92.706 c 81.683,31.233 168.353,7.716 193.316,-0.364 V 88.873 c 0,-43.168 -51.489,-66.46 -99.934,-66.46 -46.481,0 -93.382,20.547 -93.382,66.46 z m 84.052,-96.405 v 81.248 c 0,6.187 5.023,11.208 11.206,11.208 6.185,0 11.207,-5.021 11.207,-11.208 V 48.389 c 0,-6.186 -5.021,-11.207 -11.207,-11.207 -6.182,0 -11.206,5.021 -11.206,11.207 z M 202.98108,37.980276 V 141.64228 c 15.879,2.802 62.566,-10.271 62.566,-10.271 12.139,-92.455004 -62.566,-93.391004 -62.566,-93.391004 z"
   id="path1305"
   sodipodi:nodetypes="ssssssscsscsccsccsssssssssscccc" /></g>
</svg>
